<mxfile host="app.diagrams.net" modified="2022-04-18T03:15:47.163Z" agent="5.0 (X11)" etag="es_SstYSgC0zt0RMdKZh" version="17.4.5" type="github">
  <diagram id="BdmebexUhRvEpGlLjK6i" name="Page-1">
    <mxGraphModel dx="1042" dy="608" grid="1" gridSize="10" guides="1" tooltips="1" connect="1" arrows="1" fold="1" page="1" pageScale="1" pageWidth="827" pageHeight="1169" math="0" shadow="0">
      <root>
        <mxCell id="0" />
        <mxCell id="1" parent="0" />
        <mxCell id="BQkvGb8uxGoEaIsRziVQ-1" value="renardClient" style="rounded=0;whiteSpace=wrap;html=1;" vertex="1" parent="1">
          <mxGeometry x="140" y="150" width="120" height="60" as="geometry" />
        </mxCell>
        <mxCell id="BQkvGb8uxGoEaIsRziVQ-2" value="renardServer" style="rounded=0;whiteSpace=wrap;html=1;" vertex="1" parent="1">
          <mxGeometry x="340" y="150" width="120" height="60" as="geometry" />
        </mxCell>
        <mxCell id="BQkvGb8uxGoEaIsRziVQ-3" value="&lt;div&gt;Remote &lt;br&gt;&lt;/div&gt;&lt;div&gt;data source 1&lt;/div&gt;" style="rounded=0;whiteSpace=wrap;html=1;" vertex="1" parent="1">
          <mxGeometry x="540" y="78" width="120" height="60" as="geometry" />
        </mxCell>
        <mxCell id="BQkvGb8uxGoEaIsRziVQ-4" value="&lt;div&gt;Remote &lt;br&gt;&lt;/div&gt;&lt;div&gt;data source 2&lt;br&gt;&lt;/div&gt;" style="rounded=0;whiteSpace=wrap;html=1;" vertex="1" parent="1">
          <mxGeometry x="540" y="152" width="120" height="60" as="geometry" />
        </mxCell>
        <mxCell id="BQkvGb8uxGoEaIsRziVQ-5" value="" style="endArrow=none;dashed=1;html=1;dashPattern=1 3;strokeWidth=2;rounded=0;" edge="1" parent="1">
          <mxGeometry width="50" height="50" relative="1" as="geometry">
            <mxPoint x="600" y="300" as="sourcePoint" />
            <mxPoint x="600" y="240" as="targetPoint" />
          </mxGeometry>
        </mxCell>
        <mxCell id="BQkvGb8uxGoEaIsRziVQ-6" value="" style="endArrow=classic;html=1;rounded=0;exitX=1;exitY=0.25;exitDx=0;exitDy=0;entryX=0;entryY=0.25;entryDx=0;entryDy=0;" edge="1" parent="1" source="BQkvGb8uxGoEaIsRziVQ-1" target="BQkvGb8uxGoEaIsRziVQ-2">
          <mxGeometry width="50" height="50" relative="1" as="geometry">
            <mxPoint x="390" y="240" as="sourcePoint" />
            <mxPoint x="440" y="190" as="targetPoint" />
          </mxGeometry>
        </mxCell>
        <mxCell id="BQkvGb8uxGoEaIsRziVQ-8" value="" style="endArrow=classic;html=1;rounded=0;entryX=0;entryY=0.25;entryDx=0;entryDy=0;" edge="1" parent="1">
          <mxGeometry width="50" height="50" relative="1" as="geometry">
            <mxPoint x="340" y="200" as="sourcePoint" />
            <mxPoint x="260" y="200" as="targetPoint" />
          </mxGeometry>
        </mxCell>
        <mxCell id="BQkvGb8uxGoEaIsRziVQ-9" value="Send Request" style="text;html=1;strokeColor=none;fillColor=none;align=center;verticalAlign=middle;whiteSpace=wrap;rounded=0;" vertex="1" parent="1">
          <mxGeometry x="254" y="134" width="90" height="30" as="geometry" />
        </mxCell>
        <mxCell id="BQkvGb8uxGoEaIsRziVQ-10" value="Send Reponse" style="text;html=1;strokeColor=none;fillColor=none;align=center;verticalAlign=middle;whiteSpace=wrap;rounded=0;" vertex="1" parent="1">
          <mxGeometry x="256" y="202" width="90" height="30" as="geometry" />
        </mxCell>
        <mxCell id="BQkvGb8uxGoEaIsRziVQ-12" value="" style="endArrow=classic;html=1;rounded=0;entryX=0;entryY=0.5;entryDx=0;entryDy=0;" edge="1" parent="1" target="BQkvGb8uxGoEaIsRziVQ-3">
          <mxGeometry width="50" height="50" relative="1" as="geometry">
            <mxPoint x="460" y="184" as="sourcePoint" />
            <mxPoint x="510" y="134" as="targetPoint" />
          </mxGeometry>
        </mxCell>
        <mxCell id="BQkvGb8uxGoEaIsRziVQ-13" value="Collect data" style="text;html=1;strokeColor=none;fillColor=none;align=center;verticalAlign=middle;whiteSpace=wrap;rounded=0;" vertex="1" parent="1">
          <mxGeometry x="430" y="110" width="90" height="30" as="geometry" />
        </mxCell>
        <mxCell id="BQkvGb8uxGoEaIsRziVQ-14" value="" style="endArrow=classic;html=1;rounded=0;entryX=0;entryY=0.5;entryDx=0;entryDy=0;" edge="1" parent="1">
          <mxGeometry width="50" height="50" relative="1" as="geometry">
            <mxPoint x="460" y="183" as="sourcePoint" />
            <mxPoint x="540" y="183" as="targetPoint" />
          </mxGeometry>
        </mxCell>
      </root>
    </mxGraphModel>
  </diagram>
</mxfile>
